<svg xmlns="http://www.w3.org/2000/svg" width="50.642" height="38.917" viewBox="0 0 50.642 38.917">
  <g id="ペンキアイコン2" transform="translate(0 -59.267)">
    <path id="パス_3" data-name="パス 3" d="M43.751,59.267V77.159a3.459,3.459,0,1,1-6.919,0V70.228a1.728,1.728,0,1,0-3.455,0v1.7a2.517,2.517,0,0,1-5.033,0V59.267H9.292L11.233,82.7c.039-.018.077-.034.116-.053a55.475,55.475,0,0,0,9.565-5.95,31.44,31.44,0,0,0,4.447-4.067l.522.447c-.211.261-.433.53-.675.807-.754.851-1.654,1.767-2.643,2.691a55.586,55.586,0,0,1-8.976,6.811,29.345,29.345,0,0,1-4.467,2.238,10.187,10.187,0,0,1-3.47.795,2.707,2.707,0,0,1-1.208-.227,1.5,1.5,0,0,1-.656-.6,4.154,4.154,0,0,1-.543-2.173,11.148,11.148,0,0,1,1.111-4.329,42.748,42.748,0,0,1,4.362-7.184L8.311,67c-.089.13-.187.251-.283.381A76.651,76.651,0,0,0,2.814,75,26.432,26.432,0,0,0,.827,79.179,12.678,12.678,0,0,0,0,83.42a7.273,7.273,0,0,0,1.013,3.843A4.756,4.756,0,0,0,3.041,89.12a6.044,6.044,0,0,0,2.611.543,13.005,13.005,0,0,0,4.459-.949c.514-.19,1.036-.409,1.566-.648l.314,3.791a6.9,6.9,0,0,0,6.872,6.326H41.072a6.9,6.9,0,0,0,6.872-6.326l2.7-32.591Z" transform="translate(0)" fill="#fff"/>
  </g>
</svg>
